<?xml version="1.0" encoding="UTF-8"?>
<svg width="150px" height="150px" viewBox="0 0 150 150" version="1.1" xmlns="http://www.w3.org/2000/svg" xmlns:xlink="http://www.w3.org/1999/xlink">
    <title>Apple</title>
    <g id="Layouts-templates" stroke="none" stroke-width="1" fill="none" fill-rule="evenodd">
        <g id="02" transform="translate(-1121.000000, -5421.000000)" fill="#FFFFFF" fill-rule="nonzero">
            <g id="Sponsors" transform="translate(0.000000, 5153.000000)">
                <g id="Apple" transform="translate(1121.000000, 268.000000)">
                    <path d="M75,4.6875 C113.770313,4.6875 145.3125,36.2296875 145.3125,75 C145.3125,113.770313 113.770313,145.3125 75,145.3125 C36.2296875,145.3125 4.6875,113.770313 4.6875,75 C4.6875,36.2296875 36.2296875,4.6875 75,4.6875 M75,0 C33.5765625,0 0,33.5765625 0,75 C0,116.41875 33.5765625,150 75,150 C116.423438,150 150,116.41875 150,75 C150,33.5765625 116.423438,0 75,0 Z" id="Shape"></path>
                    <path d="M111.871875,89.9625 L111.871875,89.3671875 C104.68125,85.5328125 100.78125,79.903125 100.78125,71.75625 C100.78125,65.1703125 103.70625,59.41875 109.06875,55.70625 L109.3125,55.584375 C105.778125,51.271875 101.025,46.9640625 93.7078125,46.9640625 C88.5890625,46.9640625 84.3234375,51.8765625 77.2546875,51.8765625 C71.6484375,51.8765625 69.328125,47.203125 63.234375,47.203125 C50.559375,47.203125 38.0015625,58.340625 38.0015625,72.834375 C38.0015625,80.503125 40.5609375,92.3625 46.2890625,102.660938 C50.4328125,110.207813 55.5515625,115.120313 61.284375,115.120313 C65.428125,115.120313 70.303125,111.407813 76.1578125,111.407813 C81.2765625,111.407813 86.034375,114.764063 90.6609375,114.764063 C101.75625,114.764063 111.99375,100.63125 111.99375,91.171875 C111.99375,90.684375 111.871875,90.3234375 111.871875,89.9625 L111.871875,89.9625 Z" id="Path"></path>
                    <path d="M77.0015625,50.325 C85.2890625,47.8078125 92.971875,41.7 92.971875,31.040625 C92.971875,30.2015625 92.85,29.1234375 92.728125,27.928125 L92.60625,27.45 C84.196875,29.7234375 76.640625,36.1921875 76.640625,46.3734375 C76.640625,47.334375 76.7625,48.5296875 77.00625,49.846875 L77.0015625,50.325 Z" id="Path"></path>
                </g>
            </g>
        </g>
    </g>
</svg>