<?xml version="1.0" encoding="UTF-8"?>
<svg width="60px" height="60px" viewBox="0 0 60 60" version="1.1" xmlns="http://www.w3.org/2000/svg" xmlns:xlink="http://www.w3.org/1999/xlink">
    <title>Behance</title>
    <g id="Layouts-templates" stroke="none" stroke-width="1" fill="none" fill-rule="evenodd">
        <g id="02" transform="translate(-828.000000, -6434.000000)" fill-rule="nonzero">
            <g id="Bottom" transform="translate(470.000000, 6334.000000)">
                <g id="Behance" transform="translate(358.000000, 100.000000)">
                    <path d="M30,59.0625 C13.974375,59.0625 0.9375,46.025625 0.9375,30 C0.9375,13.974375 13.974375,0.9375 30,0.9375 C46.025625,0.9375 59.0625,13.974375 59.0625,30 C59.0625,46.025625 46.025625,59.0625 30,59.0625 Z" id="Path" fill="#FFFFFF"></path>
                    <path d="M30,1.875 C45.508125,1.875 58.125,14.491875 58.125,30 C58.125,45.508125 45.508125,58.125 30,58.125 C14.491875,58.125 1.875,45.508125 1.875,30 C1.875,14.491875 14.491875,1.875 30,1.875 M30,0 C13.430625,0 0,13.430625 0,30 C0,46.5675 13.430625,60 30,60 C46.569375,60 60,46.5675 60,30 C60,13.4325 46.569375,0 30,0 Z" id="Shape" fill="#333333"></path>
                    <path d="M26.7825,29.244375 C26.7825,29.244375 29.92875,29.004375 29.92875,25.239375 C29.92875,21.47625 27.795,19.621875 24.5325,19.621875 L13.355625,19.605 L13.355625,40.39875 L24.79125,40.39875 C24.79125,40.39875 30.51,40.57875 30.51,34.160625 C30.51,34.15875 30.93,29.244375 26.7825,29.244375 L26.7825,29.244375 Z M17.514375,22.723125 L23.233125,22.723125 C23.233125,22.723125 25.190625,22.755 25.190625,25.291875 C25.190625,27.920625 23.233125,27.920625 23.233125,27.920625 L17.514375,27.920625 L17.514375,22.723125 L17.514375,22.723125 Z M23.7525,37.27875 L17.514375,37.27875 L17.514375,31.040625 L23.7525,31.040625 C23.7525,31.040625 26.870625,31.0725 26.870625,34.15875 C26.870625,37.245 24.200625,37.27875 23.7525,37.27875 L23.7525,37.27875 Z M39.346875,24.8025 C31.535625,24.8025 31.54875,32.600625 31.54875,32.600625 C31.54875,32.600625 31.029375,40.39875 39.346875,40.39875 C39.346875,40.39875 46.62375,40.39875 46.62375,34.160625 L42.465,34.160625 C42.465,34.160625 42.465,37.27875 39.346875,37.27875 C39.346875,37.27875 36.22875,37.27875 36.22875,33.12 L46.625625,33.12 C46.625625,31.040625 46.625625,24.8025 39.346875,24.8025 L39.346875,24.8025 Z M36.22875,31.040625 C36.22875,31.040625 36.159375,27.9225 39.346875,27.9225 C42.534375,27.9225 42.465,31.040625 42.465,31.040625 L36.22875,31.040625 Z M35.188125,21.6825 L43.505625,21.6825 L43.505625,23.761875 L35.188125,23.761875 L35.188125,21.6825 Z" id="Shape" fill="#333333"></path>
                </g>
            </g>
        </g>
    </g>
</svg>