<?xml version="1.0" encoding="UTF-8"?>
<svg width="150px" height="150px" viewBox="0 0 150 150" version="1.1" xmlns="http://www.w3.org/2000/svg" xmlns:xlink="http://www.w3.org/1999/xlink">
    <title>Social</title>
    <g id="Layouts-templates" stroke="none" stroke-width="1" fill="none" fill-rule="evenodd">
        <g id="02" transform="translate(-645.000000, -5421.000000)" fill="#FFFFFF" fill-rule="nonzero">
            <g id="Sponsors" transform="translate(0.000000, 5153.000000)">
                <g id="Social" transform="translate(645.000000, 268.000000)">
                    <path d="M75,4.6875 C113.770313,4.6875 145.3125,36.2296875 145.3125,75 C145.3125,113.770313 113.770313,145.3125 75,145.3125 C36.2296875,145.3125 4.6875,113.770313 4.6875,75 C4.6875,36.2296875 36.2296875,4.6875 75,4.6875 M75,0 C33.5765625,0 0,33.5765625 0,75 C0,116.41875 33.5765625,150 75,150 C116.423438,150 150,116.41875 150,75 C150,33.5765625 116.423438,0 75,0 Z" id="Shape"></path>
                    <path d="M94.89375,107.573438 L103.3125,102.525 L103.3125,107.11875 L74.934375,125.526562 L47.184375,106.9875 L47.184375,102.660938 L55.4859375,107.578125 L56.409375,108.121875 L57.2625,107.470313 L75.1875,93.7125 L93.1078125,107.470313 L93.965625,108.121875 L94.89375,107.573437 L94.89375,107.573438 Z M75.2484375,53.2828125 L102.539062,68.9625 L75,87.20625 L47.6296875,69.965625 L75.2484375,53.2828125 L75.2484375,53.2828125 Z M122.639062,54.196875 L94.5234375,36.2296875 L75.1921875,52.4390625 L56.296875,36.2296875 L27.3609375,55.078125 L47.2828125,70.2328125 L27.3609375,85.3875 L47.184375,97.1296875 L56.296875,102.520313 L75.1921875,88.021875 L94.0828125,102.520313 L103.317187,96.9796875 L122.64375,85.3875 L104.19375,69.5671875 L122.639062,54.196875 Z" id="Shape"></path>
                </g>
            </g>
        </g>
    </g>
</svg>