<?xml version="1.0" encoding="UTF-8"?>
<svg width="60px" height="60px" viewBox="0 0 60 60" version="1.1" xmlns="http://www.w3.org/2000/svg" xmlns:xlink="http://www.w3.org/1999/xlink">
    <title>Google Plus</title>
    <g id="Layouts-templates" stroke="none" stroke-width="1" fill="none" fill-rule="evenodd">
        <g id="02" transform="translate(-774.000000, -2613.000000)" fill-rule="nonzero">
            <g id="Speakers" transform="translate(0.000000, 2035.000000)">
                <g id="02" transform="translate(535.000000, 284.000000)">
                    <g id="RRSS" transform="translate(36.000000, 273.000000)">
                        <g id="Google-Plus" transform="translate(203.000000, 21.000000)">
                            <path d="M30,59.0625 C13.974375,59.0625 0.9375,46.025625 0.9375,30 C0.9375,13.974375 13.974375,0.9375 30,0.9375 C46.025625,0.9375 59.0625,13.974375 59.0625,30 C59.0625,46.025625 46.025625,59.0625 30,59.0625 Z" id="Path" fill="#FFFFFF"></path>
                            <path d="M30,1.875 C45.508125,1.875 58.125,14.491875 58.125,30 C58.125,45.508125 45.508125,58.125 30,58.125 C14.491875,58.125 1.875,45.508125 1.875,30 C1.875,14.491875 14.491875,1.875 30,1.875 M30,0 C13.430625,0 0,13.430625 0,30 C0,46.5675 13.430625,60 30,60 C46.569375,60 60,46.5675 60,30 C60,13.430625 46.569375,0 30,0 Z" id="Shape" fill="#0019CE"></path>
                            <path d="M34.141875,13.46625 L23.95125,13.46625 C19.29,13.46625 14.900625,16.738125 14.900625,20.8275 C14.900625,25.006875 18.07875,28.25625 22.820625,28.25625 C23.150625,28.25625 23.47125,28.18125 23.78625,28.15875 C23.475,28.745625 23.26125,29.3775 23.26125,30.065625 C23.26125,31.228125 23.88375,32.154375 24.673125,32.923125 C24.080625,32.923125 23.50125,32.930625 22.87125,32.930625 C17.09625,32.9325 12.6525,36.6075 12.6525,40.42125 C12.6525,44.176875 17.525625,46.53 23.300625,46.53 C29.885625,46.53 33.52125,42.79125 33.52125,39.035625 C33.52125,36.024375 32.6325,34.220625 29.885625,32.2725 C28.944375,31.60875 27.148125,29.990625 27.148125,29.038125 C27.148125,27.924375 27.465,27.375 29.145,26.0625 C30.8625,24.72 32.08125,23.11875 32.08125,20.919375 C32.08125,18.305625 30.95625,15.11625 28.77,15.11625 L32.49,15.11625 L34.141875,13.46625 L34.141875,13.46625 Z M30.721875,38.385 C30.800625,38.735625 30.849375,39.09375 30.849375,39.4575 C30.849375,42.493125 28.89,44.865 23.278125,44.865 C19.28625,44.865 16.404375,42.339375 16.404375,39.30375 C16.404375,36.33 19.98,33.85125 23.97375,33.89625 C24.901875,33.905625 25.771875,34.0575 26.559375,34.30875 C28.726875,35.818125 30.28125,36.669375 30.721875,38.385 L30.721875,38.385 Z M24.328125,27.06375 C21.64875,26.986875 19.100625,24.0675 18.639375,20.55 C18.178125,17.02875 19.974375,14.33625 22.65375,14.415 C25.33125,14.4975 27.88125,17.32125 28.3425,20.83875 C28.80375,24.358125 27.0075,27.1425 24.328125,27.06375 L24.328125,27.06375 Z M42.40875,26.679375 L42.40875,21.72 L39.10125,21.72 L39.10125,26.679375 L34.141875,26.679375 L34.141875,29.986875 L39.10125,29.986875 L39.10125,34.94625 L42.40875,34.94625 L42.40875,29.986875 L47.368125,29.986875 L47.368125,26.679375 L42.40875,26.679375 Z" id="Shape" fill="#0019CE"></path>
                        </g>
                    </g>
                </g>
            </g>
        </g>
    </g>
</svg>