<?xml version="1.0" encoding="UTF-8"?>
<svg width="150px" height="150px" viewBox="0 0 150 150" version="1.1" xmlns="http://www.w3.org/2000/svg" xmlns:xlink="http://www.w3.org/1999/xlink">
    <title>Google</title>
    <g id="Layouts-templates" stroke="none" stroke-width="1" fill="none" fill-rule="evenodd">
        <g id="02" transform="translate(-407.000000, -5421.000000)" fill="#FFFFFF" fill-rule="nonzero">
            <g id="Sponsors" transform="translate(0.000000, 5153.000000)">
                <g id="Google" transform="translate(407.000000, 268.000000)">
                    <path d="M75,4.6875 C113.770313,4.6875 145.3125,36.2296875 145.3125,75 C145.3125,113.770313 113.770313,145.3125 75,145.3125 C36.2296875,145.3125 4.6875,113.770313 4.6875,75 C4.6875,36.2296875 36.2296875,4.6875 75,4.6875 M75,0 C33.5765625,0 0,33.5765625 0,75 C0,116.41875 33.5765625,150 75,150 C116.423438,150 150,116.41875 150,75 C150,33.5765625 116.423438,0 75,0 Z" id="Shape"></path>
                    <path d="M114.735938,67.2375 C115.25625,70.003125 115.5375,72.9046875 115.5375,75.928125 C115.5375,99.571875 99.7078125,116.385937 75.80625,116.385937 C52.940625,116.385937 34.415625,97.8609375 34.415625,74.9953125 C34.415625,52.1296875 52.940625,33.6046875 75.80625,33.6046875 C86.98125,33.6046875 96.31875,37.715625 103.485938,44.390625 L91.81875,56.0578125 L91.81875,56.0296875 C87.4734375,51.890625 81.965625,49.7671875 75.80625,49.7671875 C62.146875,49.7671875 51.0515625,61.303125 51.0515625,74.9625 C51.0515625,88.6171875 62.1515625,100.185937 75.80625,100.185937 C88.2,100.185937 96.628125,93.0984375 98.3671875,83.371875 L75.80625,83.371875 L75.80625,67.228125 L114.735938,67.2375 L114.735938,67.2375 Z" id="Path"></path>
                </g>
            </g>
        </g>
    </g>
</svg>