<?xml version="1.0" encoding="UTF-8"?>
<svg width="60px" height="60px" viewBox="0 0 60 60" version="1.1" xmlns="http://www.w3.org/2000/svg" xmlns:xlink="http://www.w3.org/1999/xlink">
    <title>Instagram</title>
    <g id="Layouts-templates" stroke="none" stroke-width="1" fill="none" fill-rule="evenodd">
        <g id="02" transform="translate(-644.000000, -6434.000000)" fill-rule="nonzero">
            <g id="Bottom" transform="translate(470.000000, 6334.000000)">
                <g id="Instagram" transform="translate(174.000000, 100.000000)">
                    <path d="M30,59.0625 C13.974375,59.0625 0.9375,46.025625 0.9375,30 C0.9375,13.974375 13.974375,0.9375 30,0.9375 C46.025625,0.9375 59.0625,13.974375 59.0625,30 C59.0625,46.025625 46.025625,59.0625 30,59.0625 Z" id="Path" fill="#FFFFFF"></path>
                    <path d="M30,1.875 C45.508125,1.875 58.125,14.491875 58.125,30 C58.125,45.508125 45.508125,58.125 30,58.125 C14.491875,58.125 1.875,45.508125 1.875,30 C1.875,14.491875 14.491875,1.875 30,1.875 M30,0 C13.430625,0 0,13.430625 0,30 C0,46.5675 13.430625,60 30,60 C46.569375,60 60,46.5675 60,30 C60,13.430625 46.569375,0 30,0 Z" id="Shape" fill="#333333"></path>
                    <path d="M41.356875,14.86875 L18.643125,14.86875 C16.505625,14.86875 14.8575,16.516875 14.8575,18.654375 L14.8575,41.36625 C14.8575,43.50375 16.505625,45.151875 18.643125,45.151875 L41.355,45.151875 C43.4925,45.151875 45.140625,43.50375 45.140625,41.36625 L45.140625,18.654375 C45.1575226,17.6456061 44.764369,16.6731556 44.0511383,15.9595716 C43.3379077,15.2459875 42.3656521,14.8523521 41.356875,14.86875 L41.356875,14.86875 Z M30.0225,24.061875 C33.380625,24.061875 36.103125,26.7 36.103125,29.953125 C36.103125,33.20625 33.380625,35.844375 30.0225,35.844375 C26.66625,35.844375 23.94375,33.204375 23.94375,29.953125 C23.94375,26.698125 26.66625,24.061875 30.0225,24.061875 Z M41.356875,40.419375 C41.356875,41.083125 41.07375,41.36625 40.41,41.36625 L19.59,41.36625 C18.928125,41.36625 18.643125,41.083125 18.643125,40.419375 L18.643125,27.170625 L21.001875,27.684375 C20.7429089,28.5256642 20.6114498,29.4010053 20.611875,30.28125 C20.611875,35.31375 24.826875,39.399375 30.020625,39.399375 C35.218125,39.399375 39.43125,35.315625 39.43125,30.28125 C39.4316752,29.4010053 39.3002161,28.5256642 39.04125,27.684375 L41.355,27.170625 L41.355,40.419375 L41.356875,40.419375 Z M41.356875,23.385 C41.356875,23.9079446 40.9329446,24.331875 40.41,24.331875 L36.624375,24.331875 C36.1014304,24.331875 35.6775,23.9079446 35.6775,23.385 L35.6775,19.599375 C35.6775,19.07625 36.10125,18.6525 36.624375,18.6525 L40.41,18.6525 C40.933125,18.6525 41.356875,19.07625 41.356875,19.599375 L41.356875,23.385 L41.356875,23.385 Z" id="Shape" fill="#333333"></path>
                </g>
            </g>
        </g>
    </g>
</svg>