<?xml version="1.0" encoding="UTF-8"?>
<svg width="60px" height="60px" viewBox="0 0 60 60" version="1.1" xmlns="http://www.w3.org/2000/svg" xmlns:xlink="http://www.w3.org/1999/xlink">
    <title>Linkedin</title>
    <g id="Layouts-templates" stroke="none" stroke-width="1" fill="none" fill-rule="evenodd">
        <g id="02" transform="translate(-552.000000, -6434.000000)" fill-rule="nonzero">
            <g id="Bottom" transform="translate(470.000000, 6334.000000)">
                <g id="Linkedin" transform="translate(82.000000, 100.000000)">
                    <path d="M30,59.0625 C13.974375,59.0625 0.9375,46.025625 0.9375,30 C0.9375,13.974375 13.974375,0.9375 30,0.9375 C46.025625,0.9375 59.0625,13.974375 59.0625,30 C59.0625,46.025625 46.025625,59.0625 30,59.0625 Z" id="Path" fill="#FFFFFF"></path>
                    <path d="M30,1.875 C45.508125,1.875 58.125,14.491875 58.125,30 C58.125,45.508125 45.508125,58.125 30,58.125 C14.491875,58.125 1.875,45.508125 1.875,30 C1.875,14.491875 14.491875,1.875 30,1.875 M30,0 C13.430625,0 0,13.430625 0,30 C0,46.5675 13.430625,60 30,60 C46.569375,60 60,46.5675 60,30 C60,13.430625 46.569375,0 30,0 Z" id="Shape" fill="#333333"></path>
                    <path d="M45.55125,43.01625 L45.55125,31.509375 C45.55125,25.344375 42.260625,22.475625 37.87125,22.475625 C34.329375,22.475625 32.743125,24.42375 31.86,25.790625 L31.86,22.94625 L25.18875,22.94625 C25.276875,24.830625 25.18875,43.01625 25.18875,43.01625 L31.86,43.01625 L31.86,31.8075 C31.86,31.209375 31.903125,30.609375 32.079375,30.181875 C32.56125,28.98375 33.658125,27.7425 35.50125,27.7425 C37.91625,27.7425 38.881875,29.581875 38.881875,32.28 L38.881875,43.018125 L45.55125,43.01625 L45.55125,43.01625 Z M18.159375,20.206875 C20.484375,20.206875 21.93375,18.66375 21.93375,16.738125 C21.890625,14.769375 20.484375,13.27125 18.2025,13.27125 C15.920625,13.27125 14.43,14.769375 14.43,16.738125 C14.43,18.665625 15.8775,20.206875 18.118125,20.206875 L18.159375,20.206875 Z M21.495,43.01625 L21.495,22.94625 L14.825625,22.94625 L14.825625,43.01625 L21.495,43.01625 Z" id="Shape" fill="#333333"></path>
                </g>
            </g>
        </g>
    </g>
</svg>