<?xml version="1.0" encoding="UTF-8"?>
<svg width="500px" height="76px" viewBox="0 0 500 76" version="1.1" xmlns="http://www.w3.org/2000/svg" xmlns:xlink="http://www.w3.org/1999/xlink">
    <title>Logo</title>
    <g id="Layouts-templates" stroke="none" stroke-width="1" fill="none" fill-rule="evenodd">
        <g id="02" transform="translate(-470.000000, -6334.000000)" fill="#0019CE">
            <g id="Logo" transform="translate(470.000000, 6334.000000)">
                <path d="M163.475418,13.1397464 C166.535698,16.2704209 168.067227,20.641297 168.067227,26.2495348 L168.067227,50.6666667 L157.78113,50.6666667 L157.78113,27.6771508 C157.78113,24.4222431 156.973016,21.9297719 155.356788,20.2018667 C153.74056,18.4739615 151.536297,17.6100089 148.744,17.6100089 C145.952396,17.6100089 143.735637,18.4739615 142.09511,20.2018667 C140.453195,21.9297719 139.633973,24.4222431 139.633973,27.6771508 L139.633973,50.6666667 L129.347182,50.6666667 L129.347182,27.6771508 C129.347182,24.4222431 128.539068,21.9297719 126.92284,20.2018667 C125.305917,18.4739615 123.102349,17.6100089 120.310051,17.6100089 C117.469156,17.6100089 115.228097,18.4739615 113.58757,20.2018667 C111.945655,21.9297719 111.126433,24.4222431 111.126433,27.6771508 L111.126433,50.6666667 L100.840336,50.6666667 L100.840336,9.04502283 L111.126433,9.04502283 L111.126433,14.0789487 C112.448991,12.3261969 114.149918,10.9489841 116.232686,9.94660031 C118.314065,8.94563634 120.604416,8.44444444 123.102349,8.44444444 C126.286207,8.44444444 129.127102,9.13305087 131.625035,10.5102637 C134.123663,11.8888964 136.05786,13.8539093 137.429016,16.4081422 C138.752268,14.003699 140.673968,12.0763109 143.196894,10.6231384 C145.719126,9.17138566 148.450329,8.44444444 151.389115,8.44444444 C156.385676,8.44444444 160.413749,10.0104916 163.475418,13.1397464" id="Fill-68"></path>
                <path d="M199.026979,25.7172351 C198.975819,23.0597754 197.984323,20.9317151 196.053212,19.3323568 C194.119938,17.733696 191.756489,16.9329706 188.961421,16.9329706 C186.316951,16.9329706 184.09257,17.7085862 182.288998,19.2584223 C180.483986,20.8082584 179.37792,22.9614285 178.971522,25.7172351 L199.026979,25.7172351 Z M209.779235,32.6559252 L178.895142,32.6559252 C179.149501,35.6084258 180.216656,37.9220199 182.098049,39.5946153 C183.978721,41.2679082 186.292452,42.1042059 189.037801,42.1042059 C193.003064,42.1042059 195.824793,40.4560229 197.502266,37.1582618 L209.016878,37.1582618 C207.796243,41.0963242 205.457292,44.3313106 202.000747,46.8653135 C198.543481,49.4000139 194.298638,50.6666667 189.266219,50.6666667 C185.198636,50.6666667 181.551141,49.7934017 178.323735,48.0461742 C175.094167,46.3003418 172.577957,43.827021 170.774386,40.6276069 C168.968652,37.4295878 168.067227,33.738439 168.067227,29.5555556 C168.067227,25.3238474 168.955682,21.6089837 170.736196,18.4095696 C172.515268,15.210853 175.006258,12.7507847 178.209165,11.0279696 C181.412072,9.30585199 185.097036,8.44444444 189.266219,8.44444444 C193.281923,8.44444444 196.878978,9.28143963 200.056665,10.954035 C203.232911,12.6273279 205.699402,15.0023017 207.453254,18.0768641 C209.207107,21.1535189 210.084034,24.6835461 210.084034,28.6697356 C210.084034,30.1463347 209.981714,31.474367 209.779235,32.6559252 L209.779235,32.6559252 Z" id="Fill-70"></path>
                <path d="M245.245467,25.7172351 C245.194307,23.0597754 244.202811,20.9317151 242.271699,19.3323568 C240.338426,17.733696 237.974976,16.9329706 235.179908,16.9329706 C232.535438,16.9329706 230.311057,17.7085862 228.507486,19.2584223 C226.702473,20.8082584 225.596407,22.9614285 225.190009,25.7172351 L245.245467,25.7172351 Z M255.997722,32.6559252 L225.11435,32.6559252 C225.367988,35.6084258 226.435144,37.9220199 228.316536,39.5946153 C230.197208,41.2679082 232.510939,42.1042059 235.256288,42.1042059 C239.221552,42.1042059 242.04328,40.4560229 243.720753,37.1582618 L255.235366,37.1582618 C254.01473,41.0963242 251.6765,44.3313106 248.219234,46.8653135 C244.761968,49.4000139 240.517126,50.6666667 235.484707,50.6666667 C231.417123,50.6666667 227.769628,49.7934017 224.542222,48.0461742 C221.312654,46.3003418 218.796445,43.827021 216.992873,40.6276069 C215.18714,37.4295878 214.285714,33.738439 214.285714,29.5555556 C214.285714,25.3238474 215.17417,21.6089837 216.954683,18.4095696 C218.733756,15.210853 221.224745,12.7507847 224.427652,11.0279696 C227.630559,9.30585199 231.315524,8.44444444 235.484707,8.44444444 C239.50041,8.44444444 243.097465,9.28143963 246.275153,10.954035 C249.451399,12.6273279 251.917889,15.0023017 253.671742,18.0768641 C255.425595,21.1535189 256.302521,24.6835461 256.302521,28.6697356 C256.302521,30.1463347 256.200201,31.474367 255.997722,32.6559252 L255.997722,32.6559252 Z" id="Fill-72"></path>
                <path d="M273.642775,18.4775918 L273.642775,38.1281771 C273.642775,39.4972468 273.928853,40.4873282 274.499808,41.0977282 C275.070764,41.7095139 276.032752,42.0143675 277.387572,42.0143675 L281.512605,42.0143675 L281.512605,50.6666667 L275.927797,50.6666667 C268.438204,50.6666667 264.693408,46.4631514 264.693408,38.0547351 L264.693408,18.4775918 L260.504202,18.4775918 L260.504202,10.0449258 L264.693408,10.0449258 L264.693408,0 L273.642775,0 L273.642775,10.0449258 L281.512605,10.0449258 L281.512605,18.4775918 L273.642775,18.4775918 Z" id="Fill-74"></path>
                <path d="M352.551048,13.1397464 C355.611328,16.2704209 357.142857,20.641297 357.142857,26.2495348 L357.142857,50.6666667 L346.85676,50.6666667 L346.85676,27.6771508 C346.85676,24.4222431 346.048646,21.9297719 344.432418,20.2018667 C342.81619,18.4739615 340.611928,17.6100089 337.81963,17.6100089 C335.028027,17.6100089 332.810573,18.4739615 331.17074,20.2018667 C329.528825,21.9297719 328.708909,24.4222431 328.708909,27.6771508 L328.708909,50.6666667 L318.422812,50.6666667 L318.422812,27.6771508 C318.422812,24.4222431 317.614698,21.9297719 315.99847,20.2018667 C314.381548,18.4739615 312.177979,17.6100089 309.385682,17.6100089 C306.544092,17.6100089 304.303728,18.4739615 302.663201,20.2018667 C301.021285,21.9297719 300.202063,24.4222431 300.202063,27.6771508 L300.202063,50.6666667 L289.915966,50.6666667 L289.915966,9.04502283 L300.202063,9.04502283 L300.202063,14.0789487 C301.524621,12.3261969 303.225548,10.9489841 305.307622,9.94660031 C307.389696,8.94563634 309.679352,8.44444444 312.177979,8.44444444 C315.361837,8.44444444 318.202038,9.13305087 320.700666,10.5102637 C323.199293,11.8888964 325.13349,13.8539093 326.504646,16.4081422 C327.827898,14.003699 329.748904,12.0763109 332.272525,10.6231384 C334.794757,9.17138566 337.525265,8.44444444 340.464745,8.44444444 C345.460612,8.44444444 349.489379,10.0104916 352.551048,13.1397464" id="Fill-76"></path>
                <path d="M395.839357,23.0967427 C394.867775,21.301388 393.556964,19.9224384 391.906926,18.9633815 C390.256199,18.003627 388.484369,17.5237497 386.591435,17.5237497 C384.697812,17.5237497 382.950065,17.9917695 381.347505,18.9264142 C379.745633,19.8617563 378.44652,21.2274534 377.45223,23.0228081 C376.456565,24.8195578 375.959076,26.9476181 375.959076,29.4083839 C375.959076,31.8691498 376.456565,34.0216224 377.45223,35.8671968 C378.44652,37.7120737 379.75733,39.127293 381.383974,40.1114599 C383.009929,41.0963242 384.745291,41.5873614 386.591435,41.5873614 C388.484369,41.5873614 390.256199,41.1081816 391.906926,40.1484271 C393.556964,39.1886727 394.867775,37.8118156 395.839357,36.0150659 C396.809563,34.2190137 397.295354,32.0658436 397.295354,29.5555556 C397.295354,27.045965 396.809563,24.8941899 395.839357,23.0967427 M367.985496,18.4095696 C369.611451,15.2115505 371.820218,12.7507847 374.611797,11.0279696 C377.403376,9.30654949 380.521798,8.44444444 383.969126,8.44444444 C386.978829,8.44444444 389.612835,9.0603334 391.869769,10.2900188 C394.128078,11.5204018 395.936378,13.0709353 397.295354,14.9402246 L397.295354,9.10915812 L407.563025,9.10915812 L407.563025,50.0026505 L397.295354,50.0026505 L397.295354,44.0237149 C395.984544,45.9425263 394.175557,47.5300272 391.869769,48.7848225 C389.563981,50.0396178 386.90658,50.6666667 383.896876,50.6666667 C380.497714,50.6666667 377.403376,49.7808468 374.611797,48.0092069 C371.820218,46.2375671 369.611451,43.741229 367.985496,40.5174025 C366.358164,37.2942736 365.546218,33.5912674 365.546218,29.4083839 C365.546218,25.2743252 366.358164,21.6089837 367.985496,18.4095696" id="Fill-78"></path>
                <path d="M450.258158,22.5610045 C449.260761,20.8218464 447.947672,19.5000863 446.318889,18.5936979 C444.689417,17.6893358 442.926912,17.2361416 441.029997,17.2361416 C439.182022,17.2361416 437.443642,17.7008176 435.814859,18.6294942 C434.185387,19.5588462 432.871608,20.9055962 431.87559,22.6683933 C430.878882,24.4318657 430.379839,26.5046719 430.379839,28.8868119 C430.379839,31.2703027 430.878882,33.3431089 431.87559,35.1052306 C432.871608,36.868703 434.185387,38.2147776 435.814859,39.1434542 C437.443642,40.0728062 439.182022,40.5374822 441.029997,40.5374822 C442.926912,40.5374822 444.689417,40.0619998 446.318889,39.1083333 C447.947672,38.1553423 449.260761,36.7971105 450.258158,35.033638 C451.254177,33.2715164 451.753909,31.1737203 451.753909,28.7436269 C451.753909,26.3614869 451.254177,24.3008379 450.258158,22.5610045 M435.814859,10.2673522 C438.123968,9.0516301 440.763244,8.44444444 443.729241,8.44444444 C447.181875,8.44444444 450.305719,9.2785649 453.103531,10.9461304 C455.899275,12.6143713 458.111883,14.9843541 459.741355,18.0581048 C461.370138,21.1318556 462.184874,24.6939214 462.184874,28.7436269 C462.184874,32.7946831 461.370138,36.380388 459.741355,39.5014168 C458.111883,42.6224457 455.899275,45.0403819 453.103531,46.7559009 C450.305719,48.4714199 447.181875,49.3291794 443.729241,49.3291794 C440.763244,49.3291794 438.149471,48.7328001 435.887234,47.5420678 C433.626376,46.3513356 431.790118,44.8505941 430.379839,43.0391682 L430.379839,67.5555556 L420.168067,67.5555556 L420.168067,9.08742637 L430.379839,9.08742637 L430.379839,14.8060481 C431.692929,12.9952976 433.504373,11.4817235 435.814859,10.2673522" id="Fill-80"></path>
                <path d="M475.1557,48.8580596 C472.524266,47.6527865 470.442457,46.0164609 468.907511,43.9490828 C467.373256,41.8824022 466.532937,39.5946153 466.386555,37.0850248 L476.689955,37.0850248 C476.883981,38.6599707 477.651109,39.9635907 478.992028,40.9965823 C480.330876,42.0302713 481.999085,42.5471159 483.997346,42.5471159 C485.945201,42.5471159 487.468408,42.1537281 488.564206,41.3662551 C489.660694,40.5794797 490.208248,39.570203 490.208248,38.3391226 C490.208248,37.0103927 489.538479,36.0143684 488.19894,35.3503522 C486.858711,34.6856386 484.727878,33.9602427 481.805059,33.1727698 C478.784193,32.4341215 476.31226,31.6717584 474.388572,30.8842854 C472.463503,30.0975099 470.807723,28.8915394 469.41916,27.2670712 C468.031287,25.6433006 467.33666,23.4545581 467.33666,20.6973565 C467.33666,18.4346795 467.981572,16.3679989 469.272777,14.4973146 C470.563292,12.6273279 472.415169,11.1514264 474.826339,10.0682151 C477.238199,8.98639883 480.075397,8.44444444 483.340005,8.44444444 C488.162344,8.44444444 492.009721,9.66227244 494.884895,12.0979284 C497.758689,14.5342819 499.342659,17.8187905 499.634734,21.9528493 L489.842982,21.9528493 C489.69729,20.3283811 489.02683,19.0366185 487.832984,18.0768641 C486.639828,17.1178071 485.044119,16.6379298 483.04724,16.6379298 C481.195362,16.6379298 479.770894,16.9824929 478.772454,17.6716189 C477.773324,18.3607449 477.274104,19.3204994 477.274104,20.5501848 C477.274104,21.9284369 477.956302,22.9746809 479.320699,23.6875218 C480.684404,24.4010602 482.802809,25.126456 485.677984,25.8644068 C488.600802,26.603055 491.012662,27.3668131 492.912183,28.1528911 C494.812395,28.9410616 496.456437,30.1588896 497.844309,31.8070726 C499.232872,33.4559531 499.950976,35.6342331 500,38.3391226 C500,40.7015415 499.353707,42.8177443 498.063883,44.687731 C496.772678,46.5584153 494.921491,48.0224594 492.510321,49.0791658 C490.099152,50.1372672 487.28543,50.6666667 484.070537,50.6666667 C480.756905,50.6666667 477.786443,50.0633326 475.1557,48.8580596" id="Fill-82"></path>
                <path d="M38.1560562,0.0020679897 C38.0428702,0 37.9283121,0 37.815812,0 C16.9360673,0 0.00891769108,17.0043899 0,37.9848347 L0,38 C0,58.9859594 16.9305795,76 37.815812,76 C37.9283121,76 38.0428702,76 38.1560562,75.9972427 L38.1560562,62.9461597 C38.0428702,62.946849 37.9296841,62.9482277 37.815812,62.9482277 C24.104519,62.9482277 12.9889601,51.7776367 12.9889601,38 L12.9889601,37.9848347 C12.9978777,24.213402 24.1100068,13.0524616 37.815812,13.0524616 C37.9296841,13.0524616 38.0428702,13.0538403 38.1560562,13.0545296 C51.7040869,13.237202 62.6330603,24.3278308 62.641978,37.9848347 L75.6302521,37.9848347 C75.6213344,17.119508 58.8780264,0.184740413 38.1560562,0.0020679897" id="Fill-84"></path>
                <path d="M40.1686867,29.5592316 C40.0851579,29.5561682 40.0010194,29.5555556 39.9162712,29.5555556 C34.1149839,29.5555556 29.4117647,34.2811556 29.4117647,40.1108048 C29.4117647,40.1242837 29.4117647,40.1383754 29.4129841,40.1518543 C29.4343236,45.9631231 34.1283973,50.6666667 39.9162712,50.6666667 C40.0010194,50.6666667 40.0851579,50.6654413 40.1686867,50.6629906 C45.8388887,50.5294264 50.3994383,45.8779606 50.4195584,40.1518543 C50.4201681,40.1383754 50.4201681,40.1242837 50.4201681,40.1108048 C50.4201681,34.3663181 45.8529118,29.6927959 40.1686867,29.5592316" id="Fill-86"></path>
            </g>
        </g>
    </g>
</svg>