<?xml version="1.0" encoding="UTF-8"?>
<svg width="71px" height="70px" viewBox="0 0 71 70" version="1.1" xmlns="http://www.w3.org/2000/svg" xmlns:xlink="http://www.w3.org/1999/xlink">
    <title>Megaphone</title>
    <g id="Layouts-templates" stroke="none" stroke-width="1" fill="none" fill-rule="evenodd">
        <g id="02" transform="translate(-705.000000, -4880.000000)">
            <g id="Banner" transform="translate(0.000000, 4793.000000)">
                <g id="Speakers" transform="translate(675.000000, 87.000000)">
                    <g id="Megaphone" transform="translate(30.500000, 0.000000)">
                        <rect id="Rectangle" x="0" y="0" width="70" height="70"></rect>
                        <path d="M65.625,32.8125 C65.6167123,25.5671983 59.7453017,19.6957877 52.5,19.6875 L41.5670391,19.6875 C41.425248,19.6869668 27.2441477,19.4989785 13.7511828,8.18229727 C12.4492987,7.08842267 10.6315018,6.84804607 9.0900396,7.5659304 C7.54857736,8.28381473 6.56275682,9.82988213 6.56214513,11.5303125 L6.56214513,54.0946875 C6.55182217,55.7966374 7.53919903,57.3469148 9.08591797,58.0571277 C9.66830089,58.3307318 10.3036587,58.4731175 10.9471086,58.4742266 C11.9741283,58.4721478 12.967308,58.1068471 13.7509094,57.4429625 C24.1080273,48.7562551 34.8696906,46.6268359 39.375,46.1058609 L39.375,55.7043375 C39.3732621,57.1674919 40.1046467,58.534218 41.3229687,59.3444742 L44.3289137,61.348525 C45.5127218,62.1375215 47.0062328,62.3016763 48.3331502,61.7886389 C49.6600676,61.2756015 50.6546916,60.1494376 50.9998262,58.769293 L54.2374219,45.8189402 C60.751785,44.9413096 65.615901,39.3857092 65.625,32.8125 Z M46.755409,57.7081313 L43.75,55.7043457 L43.75,45.9375 L49.6983348,45.9375 L46.755409,57.7081313 Z M52.5,41.5625 L43.75,41.5625 L43.75,24.0625 L52.5,24.0625 C57.3324916,24.0625 61.25,27.9800084 61.25,32.8125 C61.25,37.6449916 57.3324916,41.5625 52.5,41.5625 Z" id="Shape" fill="#FFFFFF" fill-rule="nonzero"></path>
                    </g>
                </g>
            </g>
        </g>
    </g>
</svg>