<?xml version="1.0" encoding="UTF-8"?>
<svg width="150px" height="150px" viewBox="0 0 150 150" version="1.1" xmlns="http://www.w3.org/2000/svg" xmlns:xlink="http://www.w3.org/1999/xlink">
    <title>Pinterst</title>
    <g id="Layouts-templates" stroke="none" stroke-width="1" fill="none" fill-rule="evenodd">
        <g id="02" transform="translate(-883.000000, -5421.000000)" fill="#FFFFFF" fill-rule="nonzero">
            <g id="Sponsors" transform="translate(0.000000, 5153.000000)">
                <g id="Pinterst" transform="translate(883.000000, 268.000000)">
                    <path d="M75,4.6875 C113.770313,4.6875 145.3125,36.2296875 145.3125,75 C145.3125,113.770313 113.770313,145.3125 75,145.3125 C36.2296875,145.3125 4.6875,113.770313 4.6875,75 C4.6875,36.2296875 36.2296875,4.6875 75,4.6875 M75,0 C33.5765625,0 0,33.5765625 0,75 C0,116.41875 33.5765625,150 75,150 C116.423438,150 150,116.41875 150,75 C150,33.5765625 116.423438,0 75,0 Z" id="Shape"></path>
                    <path d="M112.532813,58.4296875 C112.532813,80.2640625 100.392188,96.58125 82.5,96.58125 C76.4859375,96.58125 70.8375,93.3328125 68.9015625,89.6390625 C68.9015625,89.6390625 65.6671875,102.464063 64.9875,104.939063 C62.578125,113.685937 55.4859375,122.4375 54.9375,123.154687 C54.553125,123.651562 53.7046875,123.496875 53.615625,122.835937 C53.4609375,121.720312 51.65625,110.685937 53.784375,101.68125 L60.9421875,71.3484375 C60.9421875,71.3484375 59.165625,67.7953125 59.165625,62.540625 C59.165625,54.290625 63.946875,48.13125 69.9,48.13125 C74.9625,48.13125 77.4046875,51.928125 77.4046875,56.484375 C77.4046875,61.575 74.165625,69.1875 72.4921875,76.2375 C71.0953125,82.14375 75.4546875,86.9625 81.2765625,86.9625 C91.8234375,86.9625 98.925,73.415625 98.925,57.365625 C98.925,45.16875 90.7125,36.0328125 75.7640625,36.0328125 C58.884375,36.0328125 48.3609375,48.6234375 48.3609375,62.690625 C48.3609375,67.5421875 49.7953125,70.9640625 52.0359375,73.6078125 C53.0625,74.8265625 53.2078125,75.3140625 52.8328125,76.7109375 C52.5609375,77.7375 51.95625,80.1984375 51.69375,81.178125 C51.3234375,82.5890625 50.1796875,83.090625 48.909375,82.5703125 C41.1328125,79.396875 37.509375,70.875 37.509375,61.303125 C37.509375,45.4921875 50.8453125,26.53125 77.2921875,26.53125 C98.55,26.5453125 112.532813,41.9203125 112.532813,58.4296875 L112.532813,58.4296875 Z" id="Path"></path>
                </g>
            </g>
        </g>
    </g>
</svg>