<?xml version="1.0" encoding="UTF-8"?>
<svg width="70px" height="70px" viewBox="0 0 70 70" version="1.1" xmlns="http://www.w3.org/2000/svg" xmlns:xlink="http://www.w3.org/1999/xlink">
    <title>SunHorizon</title>
    <g id="Layouts-templates" stroke="none" stroke-width="1" fill="none" fill-rule="evenodd">
        <g id="02" transform="translate(-931.000000, -4880.000000)">
            <g id="Banner" transform="translate(0.000000, 4793.000000)">
                <g id="SunHorizon" transform="translate(931.000000, 87.000000)">
                    <rect id="Rectangle" x="0" y="0" width="70" height="70"></rect>
                    <path d="M21.2593664,11.9182957 C20.7992455,10.8026268 21.3295664,9.5250917 22.4445278,9.06325925 C23.5594893,8.60142679 24.8378367,9.12978648 25.3013797,10.2440379 L27.3940844,15.2964902 C27.6945769,16.0188057 27.5864564,16.8466076 27.1105236,17.4675129 C26.6345909,18.0884182 25.8633059,18.4078951 25.0877243,18.3053844 C24.3121426,18.2028736 23.6503453,17.6939824 23.3520711,16.970748 L21.2593664,11.9182957 Z M5.86902695,29.6762457 L10.9214793,31.7689504 C11.6437173,32.0692903 12.4713614,31.9611172 13.0921482,31.4852438 C13.712935,31.0093704 14.0323726,30.2382311 13.9299396,29.4627704 C13.8275067,28.6873098 13.3187949,28.0255632 12.5957371,27.7272023 L7.5432957,25.6344922 C6.82105773,25.3341523 5.99341364,25.4423254 5.37262681,25.9181988 C4.75183998,26.3940722 4.43240244,27.1652115 4.53483539,27.9406721 C4.63726834,28.7161328 5.14598012,29.3778794 5.86903789,29.6762402 L5.86902695,29.6762457 Z M58.2421875,31.936111 C58.5292533,31.9360114 58.8134717,31.8792038 59.0785207,31.7689504 L64.130973,29.6762457 C64.8540308,29.3778848 65.3627426,28.7161383 65.4651755,27.9406776 C65.5676085,27.1652169 65.248171,26.3940776 64.6273841,25.9182043 C64.0065973,25.4423309 63.1789532,25.3341577 62.4567152,25.6344977 L57.4042629,27.7272023 C56.4400004,28.1267531 55.8922758,29.1518297 56.0960727,30.1755044 C56.2998695,31.1991791 57.1984236,31.9363252 58.2421875,31.936111 Z M43.7897879,18.1544863 C44.3257215,18.3770777 44.9281797,18.3773784 45.4643353,18.1553222 C46.0004909,17.933266 46.4263168,17.5070873 46.6479289,16.970748 L48.7406336,11.9182957 C49.2007545,10.8026268 48.6704336,9.5250917 47.5554722,9.06325925 C46.4405107,8.60142679 45.1621633,9.12978648 44.6986203,10.2440379 L42.6059156,15.2964902 C42.3838789,15.832472 42.3838711,16.4347083 42.6058941,16.9706958 C42.827917,17.5066834 43.253781,17.9325101 43.7897879,18.1544863 L43.7897879,18.1544863 Z M65.625,41.5625 L53.4633723,41.5625 C54.3110313,34.4422593 50.9889068,27.4691252 44.9254685,23.6414537 C38.8620302,19.8137821 31.1379698,19.8137821 25.0745315,23.6414537 C19.0110932,27.4691252 15.6889687,34.4422593 16.5366277,41.5625 L4.375,41.5625 C3.16687711,41.5625 2.1875,42.5418771 2.1875,43.75 C2.1875,44.9581229 3.16687711,45.9375 4.375,45.9375 L50.8096422,45.9375 L50.8175855,45.9380332 L50.8240605,45.9375 L65.625,45.9375 C66.8331229,45.9375 67.8125,44.9581229 67.8125,43.75 C67.8125,42.5418771 66.8331229,41.5625 65.625,41.5625 Z M56.875,52.5 L13.125,52.5 C11.9168771,52.5 10.9375,53.4793771 10.9375,54.6875 C10.9375,55.8956229 11.9168771,56.875 13.125,56.875 L56.875,56.875 C58.0831229,56.875 59.0625,55.8956229 59.0625,54.6875 C59.0625,53.4793771 58.0831229,52.5 56.875,52.5 Z" id="Shape" fill="#FFFFFF" fill-rule="nonzero"></path>
                </g>
            </g>
        </g>
    </g>
</svg>