<?xml version="1.0" encoding="UTF-8"?>
<svg width="70px" height="70px" viewBox="0 0 70 70" version="1.1" xmlns="http://www.w3.org/2000/svg" xmlns:xlink="http://www.w3.org/1999/xlink">
    <title>UsersThree</title>
    <g id="Layouts-templates" stroke="none" stroke-width="1" fill="none" fill-rule="evenodd">
        <g id="02" transform="translate(-460.000000, -4880.000000)">
            <g id="Banner" transform="translate(0.000000, 4793.000000)">
                <g id="Participants" transform="translate(410.000000, 87.000000)">
                    <g id="UsersThree" transform="translate(50.000000, 0.000000)">
                        <rect id="Rectangle" x="0" y="0" width="70" height="70"></rect>
                        <path d="M17.4994668,38.2817969 C17.4994994,38.861968 17.2690418,39.4183861 16.8587989,39.828629 C16.448556,40.2388719 15.8921379,40.4692969 15.3119668,40.4692969 L15.3118328,40.4692969 L3.28018086,40.4682305 C2.45137642,40.468129 1.6938065,39.9996369 1.32347101,39.2581732 C0.953135517,38.5167095 1.03364277,37.6296269 1.53141133,36.966948 C3.47018188,34.3693304 6.05599442,32.3252949 9.03104727,31.0386289 C5.52091109,27.830027 4.4868986,22.7206876 6.47322521,18.3997284 C8.45955181,14.0787691 13.0107746,11.5369387 17.7315206,12.1120383 C22.4522665,12.687138 26.2601204,16.2473037 27.1509547,20.9187699 C27.3228656,21.8240817 26.9089857,22.7400432 26.1159527,23.2093422 C22.5744693,25.3044134 19.8790785,28.5742191 18.4982875,32.4504086 C17.8349588,34.3229493 17.4971379,36.2952399 17.4994668,38.2817969 Z M68.4680555,36.9664148 C66.5293616,34.3687785 63.9435845,32.324739 60.9685508,31.0381066 C64.4786461,27.8295149 65.5126547,22.7202236 63.5263713,18.3992852 C61.5400878,14.0783468 56.9889367,11.5364863 52.2682176,12.111501 C47.5474985,12.6865157 43.7396001,16.2465635 42.8486434,20.9179687 C42.6768094,21.8232391 43.0906078,22.7391362 43.8835141,23.208541 C47.4249934,25.3037753 50.1204049,28.5736434 51.5013133,32.4498754 C52.1645976,34.3224191 52.5023732,36.2947052 52.5,38.28125 C52.5000283,38.8614498 52.730543,39.417874 53.1408318,39.8281115 C53.5511207,40.2383491 54.1075737,40.46875 54.6877734,40.46875 L66.7192969,40.4676809 C67.5481008,40.4675796 68.3056705,39.9990884 68.6760065,39.2576254 C69.0463425,38.5161625 68.9658364,37.6290804 68.4680691,36.9664012 L68.4680555,36.9664148 Z M42.9738805,48.696375 C47.4430381,45.278038 49.2362008,39.3913616 47.4317166,34.0619869 C45.6272323,28.7326121 40.6265796,25.146268 35,25.146268 C29.3734204,25.146268 24.3727677,28.7326121 22.5682834,34.0619869 C20.7637992,39.3913616 22.5569619,45.278038 27.0261195,48.696375 C22.7673365,50.5765723 19.3170011,53.911492 17.2930516,58.1038664 C16.9625871,58.7818203 17.0046862,59.5821945 17.40445,60.221739 C17.8042138,60.8612834 18.5052457,61.2497266 19.2594527,61.2497266 L50.7405473,61.2497266 C51.494727,61.2497266 52.1957081,60.8611988 52.595457,60.2216771 C52.9952058,59.5821554 53.0373391,58.7818205 52.7069484,58.1038609 C50.6829979,53.9114886 47.2326626,50.5765709 42.9738805,48.696375 L42.9738805,48.696375 Z" id="Shape" fill="#FFFFFF" fill-rule="nonzero"></path>
                    </g>
                </g>
            </g>
        </g>
    </g>
</svg>