<?xml version="1.0" encoding="UTF-8"?>
<svg width="60px" height="60px" viewBox="0 0 60 60" version="1.1" xmlns="http://www.w3.org/2000/svg" xmlns:xlink="http://www.w3.org/1999/xlink">
    <title>Vimeo</title>
    <g id="Layouts-templates" stroke="none" stroke-width="1" fill="none" fill-rule="evenodd">
        <g id="02" transform="translate(-690.000000, -2613.000000)" fill-rule="nonzero">
            <g id="Speakers" transform="translate(0.000000, 2035.000000)">
                <g id="02" transform="translate(535.000000, 284.000000)">
                    <g id="RRSS" transform="translate(36.000000, 273.000000)">
                        <g id="Vimeo" transform="translate(119.000000, 21.000000)">
                            <path d="M30,59.0625 C13.974375,59.0625 0.9375,46.025625 0.9375,30 C0.9375,13.974375 13.974375,0.9375 30,0.9375 C46.025625,0.9375 59.0625,13.974375 59.0625,30 C59.0625,46.025625 46.025625,59.0625 30,59.0625 Z" id="Path" fill="#FFFFFF"></path>
                            <path d="M30,1.875 C45.508125,1.875 58.125,14.491875 58.125,30 C58.125,45.508125 45.508125,58.125 30,58.125 C14.491875,58.125 1.875,45.508125 1.875,30 C1.875,14.491875 14.491875,1.875 30,1.875 M30,0 C13.430625,0 0,13.430625 0,30 C0,46.5675 13.430625,60 30,60 C46.569375,60 60,46.5675 60,30 C60,13.430625 46.569375,0 30,0 Z" id="Shape" fill="#0019CE"></path>
                            <path d="M14.360625,26.919375 C14.360625,26.919375 17.2125,24.67125 18.163125,25.794375 C19.11375,26.919375 22.741875,40.486875 23.953125,42.99 C25.010625,45.185625 27.92625,48.08625 31.123125,46.014375 C34.32,43.9425 44.9475,34.8675 46.850625,24.151875 C48.751875,13.438125 34.06125,15.6825 32.505,25.01625 C36.395625,22.681875 38.47125,25.965 36.48,29.683125 C34.4925,33.3975 32.6775,35.82 31.726875,35.82 C30.778125,35.82 30.04875,33.33375 28.96125,28.989375 C27.838125,24.49875 27.84375,16.408125 23.173125,17.325 C18.766875,18.189375 12.976875,25.104375 12.976875,25.104375 L14.360625,26.919375 L14.360625,26.919375 Z" id="Path" fill="#0019CE"></path>
                        </g>
                    </g>
                </g>
            </g>
        </g>
    </g>
</svg>