<?xml version="1.0" encoding="UTF-8"?>
<svg width="150px" height="150px" viewBox="0 0 150 150" version="1.1" xmlns="http://www.w3.org/2000/svg" xmlns:xlink="http://www.w3.org/1999/xlink">
    <title>Youtube</title>
    <g id="Layouts-templates" stroke="none" stroke-width="1" fill="none" fill-rule="evenodd">
        <g id="02" transform="translate(-169.000000, -5421.000000)" fill="#FFFFFF" fill-rule="nonzero">
            <g id="Sponsors" transform="translate(0.000000, 5153.000000)">
                <g id="Youtube" transform="translate(169.000000, 268.000000)">
                    <path d="M75,4.6875 C113.770313,4.6875 145.3125,36.2296875 145.3125,75 C145.3125,113.770313 113.770313,145.3125 75,145.3125 C36.2296875,145.3125 4.6875,113.770313 4.6875,75 C4.6875,36.2296875 36.2296875,4.6875 75,4.6875 M75,0 C33.5765625,0 0,33.5765625 0,75 C0,116.41875 33.5765625,150 75,150 C116.423438,150 150,116.41875 150,75 C150,33.5765625 116.423438,0 75,0 Z" id="Shape"></path>
                    <path d="M99.140625,91.828125 C98.45625,91.828125 97.96875,92.0203125 97.66875,92.428125 C97.3734375,92.8125 97.228125,93.46875 97.228125,94.3828125 L97.228125,96.5859375 L101.020312,96.5859375 L101.020312,94.3828125 C101.020312,93.46875 100.865625,92.8125 100.565625,92.428125 C100.275,92.0203125 99.7921875,91.828125 99.140625,91.828125 Z M84.35625,91.7484336 C84.0409302,91.7478218 83.7297248,91.8200086 83.446875,91.959375 C83.1153702,92.1284728 82.815634,92.3536714 82.5609375,92.625 L82.5609375,106.214062 C82.8532572,106.526914 83.1973679,106.786979 83.578125,106.982812 C83.9014945,107.137628 84.2555441,107.21773 84.6140625,107.21719 C85.1390625,107.21719 85.5234375,107.067187 85.7671875,106.753125 C86.0109375,106.448437 86.1421875,105.95625 86.1421875,105.253125 L86.1421875,93.99375 C86.1421875,93.2578125 85.9875,92.6953125 85.6875,92.3203125 C85.3828125,91.9359375 84.9328125,91.7484336 84.35625,91.7484336 L84.35625,91.7484336 Z" id="Shape"></path>
                    <path d="M108.182813,74.8453125 C104.657813,71.3296875 74.9859375,71.282611 74.9859375,71.282611 C74.9859375,71.278125 45.3140625,71.325 41.784375,74.840625 C38.2546875,78.365625 38.2453125,95.75625 38.2453125,95.8546875 C38.2453125,95.9859375 38.2546875,113.348438 41.784375,116.873437 C45.3140625,120.389062 74.9859375,120.464062 74.9859375,120.464062 C74.9859375,120.464062 104.6625,120.389062 108.182813,116.873437 C111.726563,113.339063 111.759375,95.8546875 111.759375,95.8546875 C111.759375,95.7609375 111.717188,78.3703125 108.182813,74.8453125 L108.182813,74.8453125 Z M60.8765625,85.096875 L55.8796875,85.096875 L55.8796875,110.3625 L51.046875,110.3625 L51.046875,85.096875 L46.0453125,85.096875 L46.0453125,80.803125 L60.871875,80.803125 L60.871875,85.096875 L60.8765625,85.096875 Z M75,110.357813 L70.7203125,110.357813 L70.7203125,107.9625 C69.9234375,108.848438 69.103125,109.523438 68.240625,109.982813 C67.3828125,110.451563 66.553125,110.676563 65.7515625,110.676563 C64.7578125,110.676563 64.021875,110.357813 63.5109375,109.701563 C63.01875,109.05 62.7609375,108.084375 62.7609375,106.78125 L62.7609375,88.546875 L67.0453125,88.546875 L67.0453125,105.271875 C67.0453125,105.792188 67.134375,106.1625 67.3078125,106.396875 C67.4953125,106.63125 67.790625,106.74375 68.1890625,106.74375 C68.6242917,106.703058 69.0396976,106.542413 69.3890625,106.279688 C69.8885092,105.959155 70.3372203,105.565742 70.7203125,105.1125 L70.7203125,88.546875 L75,88.546875 L75,110.357813 Z M90.5578125,105.853125 C90.5578125,107.395313 90.2203125,108.576562 89.55,109.401563 C88.884375,110.226563 87.9046875,110.634375 86.634375,110.634375 C85.8608245,110.653181 85.0935725,110.491062 84.39375,110.160938 C83.6833182,109.806933 83.0580332,109.303187 82.5609375,108.684375 L82.5609375,110.357813 L78.2296875,110.357813 L78.2296875,80.7984375 L82.5609375,80.7984375 L82.5609375,90.31875 C83.1421875,89.653125 83.7515625,89.1421875 84.3984375,88.8046875 C85.0046415,88.4703418 85.6843064,88.2915674 86.3765625,88.284375 C87.7359375,88.284375 88.771875,88.7484375 89.484375,89.671875 C90.20625,90.6046875 90.5578125,91.9640625 90.5578125,93.75 L90.5578125,105.853125 L90.5578125,105.853125 Z M105.426563,99.984375 L97.228125,99.984375 L97.228125,104.085938 C97.228125,105.234375 97.36875,106.03125 97.6453125,106.476563 C97.9359375,106.921875 98.4140625,107.1375 99.0984375,107.1375 C99.80625,107.1375 100.303125,106.95 100.589063,106.575 C100.870313,106.2 101.020313,105.375 101.020313,104.085938 L101.020313,103.092188 L105.43125,103.092188 L105.43125,104.2125 C105.43125,106.448438 104.896875,108.13125 103.81875,109.270313 C102.75,110.4 101.142188,110.957813 99.009375,110.957813 C97.0921875,110.957813 95.5734375,110.3625 94.471875,109.1625 C93.3703125,107.967188 92.8125,106.321875 92.8125,104.217188 L92.8125,94.425 C92.8125,92.540625 93.4265625,90.9890625 94.6359375,89.803125 C95.8453125,88.6125 97.40625,88.0171875 99.328125,88.0171875 C101.292188,88.0171875 102.801563,88.5703125 103.85625,89.671875 C104.910938,90.7734375 105.43125,92.3578125 105.43125,94.425 L105.43125,99.984375 L105.426563,99.984375 Z M99.121875,62.1375 L94.29375,62.1375 L94.29375,59.484375 C93.5072729,60.3856442 92.5678557,61.1409864 91.51875,61.715625 C90.6636366,62.1988027 89.7022587,62.4628998 88.7203125,62.484375 C87.5953125,62.484375 86.7609375,62.1234375 86.1984375,61.4109375 C85.6359375,60.69375 85.35,59.625 85.35,58.190625 L85.35,38.1140625 L90.16875,38.1140625 L90.16875,56.53125 C90.16875,57.0984375 90.28125,57.5109375 90.4828125,57.7640625 C90.6796875,58.021875 91.0125,58.1484375 91.4625,58.1484375 C91.9478211,58.1016484 92.4120453,57.9269578 92.8078125,57.6421875 C93.346875,57.3046875 93.8484375,56.8734375 94.29375,56.3484375 L94.29375,38.1140625 L99.121875,38.1140625 L99.121875,62.1375 L99.121875,62.1375 Z M79.5234375,39.253125 C78.24375,38.090625 76.603125,37.5046875 74.60625,37.5046875 C72.4171875,37.5046875 70.6640625,38.0578125 69.3703125,39.159375 C68.0671875,40.2609375 67.415625,41.7421875 67.4202874,43.6078125 L67.4202874,56.0578125 C67.4202874,58.1015625 68.0578125,59.7234375 69.31875,60.9328125 C70.5890625,62.1375 72.28125,62.7421875 74.390625,62.7421875 C76.5890625,62.7421875 78.3046875,62.15625 79.565625,60.9890625 C80.8125,59.8171875 81.4359375,58.209375 81.4359375,56.15625 L81.4359375,43.74375 C81.4850655,42.0393619 80.7863433,40.3987347 79.5234375,39.253125 L79.5234375,39.253125 Z M76.5140625,56.5171875 C76.5422607,57.0817181 76.3332276,57.6323417 75.9375,58.0359375 C75.5109243,58.4160664 74.9518999,58.6130719 74.38125,58.584375 C73.7390625,58.584375 73.246875,58.40625 72.909375,58.0453125 C72.543745,57.6230224 72.3570989,57.0748546 72.3890625,56.5171875 L72.3890625,43.4296875 C72.3890625,42.9046875 72.5765625,42.478125 72.9421875,42.1546875 C73.3451227,41.8203562 73.8582066,41.648214 74.38125,41.671875 C75.0140625,41.671875 75.5296875,41.83125 75.9234375,42.1546875 C76.3171875,42.478125 76.5140625,42.9046875 76.5140625,43.4296875 L76.5140625,56.5171875 L76.5140625,56.5171875 Z M54.271875,29.578125 L48.796875,29.578125 L55.265625,49.2375 L55.265625,62.1375 L60.703125,62.1375 L60.703125,48.628125 L67.0265625,29.578125 L61.5,29.578125 L58.14375,42.590625 L57.8015625,42.590625 L54.271875,29.578125 Z" id="Shape"></path>
                </g>
            </g>
        </g>
    </g>
</svg>