<?xml version="1.0" encoding="UTF-8"?>
<svg width="60px" height="60px" viewBox="0 0 60 60" version="1.1" xmlns="http://www.w3.org/2000/svg" xmlns:xlink="http://www.w3.org/1999/xlink">
    <title>Youtube</title>
    <g id="Layouts-templates" stroke="none" stroke-width="1" fill="none" fill-rule="evenodd">
        <g id="02" transform="translate(-736.000000, -6434.000000)" fill-rule="nonzero">
            <g id="Bottom" transform="translate(470.000000, 6334.000000)">
                <g id="Youtube" transform="translate(266.000000, 100.000000)">
                    <path d="M30,59.0625 C13.974375,59.0625 0.9375,46.025625 0.9375,30 C0.9375,13.974375 13.974375,0.9375 30,0.9375 C46.025625,0.9375 59.0625,13.974375 59.0625,30 C59.0625,46.025625 46.025625,59.0625 30,59.0625 Z" id="Path" fill="#FFFFFF"></path>
                    <path d="M30,1.875 C45.508125,1.875 58.125,14.491875 58.125,30 C58.125,45.508125 45.508125,58.125 30,58.125 C14.491875,58.125 1.875,45.508125 1.875,30 C1.875,14.491875 14.491875,1.875 30,1.875 M30,0 C13.430625,0 0,13.430625 0,30 C0,46.5675 13.430625,60 30,60 C46.569375,60 60,46.5675 60,30 C60,13.430625 46.569375,0 30,0 Z" id="Shape" fill="#333333"></path>
                    <path d="M39.65625,36.73125 C39.3825,36.73125 39.1875,36.808125 39.0675,36.97125 C38.949375,37.125 38.89125,37.3875 38.89125,37.753125 L38.89125,38.634375 L40.408125,38.634375 L40.408125,37.753125 C40.408125,37.3875 40.34625,37.125 40.22625,36.97125 C40.11,36.808125 39.916875,36.73125 39.65625,36.73125 Z M33.7425,36.6993734 C33.6163721,36.6991287 33.4918899,36.7280035 33.37875,36.78375 C33.2461481,36.8513891 33.1262536,36.9414686 33.024375,37.05 L33.024375,42.485625 C33.1413029,42.6107655 33.2789471,42.7147916 33.43125,42.793125 C33.5605978,42.8550513 33.7022176,42.887092 33.845625,42.8868761 C34.055625,42.8868761 34.209375,42.826875 34.306875,42.70125 C34.404375,42.579375 34.456875,42.3825 34.456875,42.10125 L34.456875,37.5975 C34.456875,37.303125 34.395,37.078125 34.275,36.928125 C34.153125,36.774375 33.973125,36.6993734 33.7425,36.6993734 L33.7425,36.6993734 Z" id="Shape" fill="#333333"></path>
                    <path d="M43.273125,29.938125 C41.863125,28.531875 29.994375,28.5130444 29.994375,28.5130444 C29.994375,28.51125 18.125625,28.53 16.71375,29.93625 C15.301875,31.34625 15.298125,38.3025 15.298125,38.341875 C15.298125,38.394375 15.301875,45.339375 16.71375,46.749375 C18.125625,48.155625 29.994375,48.185625 29.994375,48.185625 C29.994375,48.185625 41.865,48.155625 43.273125,46.749375 C44.690625,45.335625 44.70375,38.341875 44.70375,38.341875 C44.70375,38.304375 44.686875,31.348125 43.273125,29.938125 L43.273125,29.938125 Z M24.350625,34.03875 L22.351875,34.03875 L22.351875,44.145 L20.41875,44.145 L20.41875,34.03875 L18.418125,34.03875 L18.418125,32.32125 L24.34875,32.32125 L24.34875,34.03875 L24.350625,34.03875 Z M30,44.143125 L28.288125,44.143125 L28.288125,43.185 C27.969375,43.539375 27.64125,43.809375 27.29625,43.993125 C26.953125,44.180625 26.62125,44.270625 26.300625,44.270625 C25.903125,44.270625 25.60875,44.143125 25.404375,43.880625 C25.2075,43.62 25.104375,43.23375 25.104375,42.7125 L25.104375,35.41875 L26.818125,35.41875 L26.818125,42.10875 C26.818125,42.316875 26.85375,42.465 26.923125,42.55875 C26.998125,42.6525 27.11625,42.6975 27.275625,42.6975 C27.4497167,42.6812231 27.615879,42.616965 27.755625,42.511875 C27.9554037,42.3836618 28.1348881,42.226297 28.288125,42.045 L28.288125,35.41875 L30,35.41875 L30,44.143125 Z M36.223125,42.34125 C36.223125,42.958125 36.088125,43.430625 35.82,43.760625 C35.55375,44.090625 35.161875,44.25375 34.65375,44.25375 C34.3443298,44.2612722 34.037429,44.196425 33.7575,44.064375 C33.4733273,43.9227733 33.2232133,43.7212748 33.024375,43.47375 L33.024375,44.143125 L31.291875,44.143125 L31.291875,32.319375 L33.024375,32.319375 L33.024375,36.1275 C33.256875,35.86125 33.500625,35.656875 33.759375,35.521875 C34.0018566,35.3881367 34.2737225,35.316627 34.550625,35.31375 C35.094375,35.31375 35.50875,35.499375 35.79375,35.86875 C36.0825,36.241875 36.223125,36.785625 36.223125,37.5 L36.223125,42.34125 L36.223125,42.34125 Z M42.170625,39.99375 L38.89125,39.99375 L38.89125,41.634375 C38.89125,42.09375 38.9475,42.4125 39.058125,42.590625 C39.174375,42.76875 39.365625,42.855 39.639375,42.855 C39.9225,42.855 40.12125,42.78 40.235625,42.63 C40.348125,42.48 40.408125,42.15 40.408125,41.634375 L40.408125,41.236875 L42.1725,41.236875 L42.1725,41.685 C42.1725,42.579375 41.95875,43.2525 41.5275,43.708125 C41.1,44.16 40.456875,44.383125 39.60375,44.383125 C38.836875,44.383125 38.229375,44.145 37.78875,43.665 C37.348125,43.186875 37.125,42.52875 37.125,41.686875 L37.125,37.77 C37.125,37.01625 37.370625,36.395625 37.854375,35.92125 C38.338125,35.445 38.9625,35.206875 39.73125,35.206875 C40.516875,35.206875 41.120625,35.428125 41.5425,35.86875 C41.964375,36.309375 42.1725,36.943125 42.1725,37.77 L42.1725,39.99375 L42.170625,39.99375 Z M39.64875,24.855 L37.7175,24.855 L37.7175,23.79375 C37.4029092,24.1542577 37.0271423,24.4563946 36.6075,24.68625 C36.2654546,24.8795211 35.8809035,24.9851599 35.488125,24.99375 C35.038125,24.99375 34.704375,24.849375 34.479375,24.564375 C34.254375,24.2775 34.14,23.85 34.14,23.27625 L34.14,15.245625 L36.0675,15.245625 L36.0675,22.6125 C36.0675,22.839375 36.1125,23.004375 36.193125,23.105625 C36.271875,23.20875 36.405,23.259375 36.585,23.259375 C36.7791284,23.2406594 36.9648181,23.1707831 37.123125,23.056875 C37.33875,22.921875 37.539375,22.749375 37.7175,22.539375 L37.7175,15.245625 L39.64875,15.245625 L39.64875,24.855 L39.64875,24.855 Z M31.809375,15.70125 C31.2975,15.23625 30.64125,15.001875 29.8425,15.001875 C28.966875,15.001875 28.265625,15.223125 27.748125,15.66375 C27.226875,16.104375 26.96625,16.696875 26.968115,17.443125 L26.968115,22.423125 C26.968115,23.240625 27.223125,23.889375 27.7275,24.373125 C28.235625,24.855 28.9125,25.096875 29.75625,25.096875 C30.635625,25.096875 31.321875,24.8625 31.82625,24.395625 C32.325,23.926875 32.574375,23.28375 32.574375,22.4625 L32.574375,17.4975 C32.5940262,16.8157447 32.3145373,16.1594939 31.809375,15.70125 L31.809375,15.70125 Z M30.605625,22.606875 C30.6169043,22.8326872 30.5332911,23.0529367 30.375,23.214375 C30.2043697,23.3664265 29.98076,23.4452288 29.7525,23.43375 C29.495625,23.43375 29.29875,23.3625 29.16375,23.218125 C29.017498,23.0492089 28.9428396,22.8299418 28.955625,22.606875 L28.955625,17.371875 C28.955625,17.161875 29.030625,16.99125 29.176875,16.861875 C29.3380491,16.7281425 29.5432826,16.6592856 29.7525,16.66875 C30.005625,16.66875 30.211875,16.7325 30.369375,16.861875 C30.526875,16.99125 30.605625,17.161875 30.605625,17.371875 L30.605625,22.606875 L30.605625,22.606875 Z M21.70875,11.83125 L19.51875,11.83125 L22.10625,19.695 L22.10625,24.855 L24.28125,24.855 L24.28125,19.45125 L26.810625,11.83125 L24.6,11.83125 L23.2575,17.03625 L23.120625,17.03625 L21.70875,11.83125 Z" id="Shape" fill="#333333"></path>
                </g>
            </g>
        </g>
    </g>
</svg>